<?xml version="1.0" encoding="UTF-8" standalone="no"?>
<!-- Created with Inkscape (http://www.inkscape.org/) -->

<svg
   version="1.1"
   id="svg1"
   width="326.11423"
   height="63.598656"
   viewBox="0 0 326.11423 63.598656"
   xmlns="http://www.w3.org/2000/svg"
   xmlns:svg="http://www.w3.org/2000/svg">
  <defs
     id="defs1">
    <clipPath
       clipPathUnits="userSpaceOnUse"
       id="clipPath24">
      <path
         d="M 0,0 H 151 V 202 H 0 Z"
         transform="matrix(2.9473294,-1.7349037,1.7349037,2.9473294,-270.66143,206.35413)"
         id="path24" />
    </clipPath>
    <clipPath
       clipPathUnits="userSpaceOnUse"
       id="clipPath25">
      <path
         d="m 398.0625,667.13416 c 8.55417,5.03527 14.75772,13.26245 17.24594,22.8717 2.48825,9.60919 1.05731,19.81323 -3.978,28.36743 l -72.92761,123.89258 c -5.03528,8.5542 -13.26248,14.75769 -22.87167,17.24597 -9.60922,2.48816 -19.8133,1.05725 -28.36746,-3.97803 -8.55417,-5.03527 -14.75772,-13.26251 -17.24594,-22.8717 -2.48823,-9.60919 -1.05729,-19.81323 3.97799,-28.36743 L 346.82336,680.4021 c 5.03531,-8.55414 13.26249,-14.75769 22.87171,-17.24597 9.60919,-2.48822 19.81326,-1.05725 28.36743,3.97803 z"
         transform="matrix(0.31999999,0,0,0.31999999,520,0)"
         id="path25" />
    </clipPath>
    <clipPath
       clipPathUnits="userSpaceOnUse"
       id="clipPath26">
      <path
         d="m 365.80896,648.14856 64.50708,37.97119 -110.94705,188.48163 -64.5071,-37.97119 z"
         transform="matrix(0.31999999,0,0,0.31999999,520,0)"
         id="path26" />
    </clipPath>
    <clipPath
       clipPathUnits="userSpaceOnUse"
       id="clipPath30">
      <path
         d="M 0,0 H 1562.5 V 1562.5 H 0 Z"
         transform="matrix(0.31999999,0,0,0.31999999,520,0)"
         id="path30" />
    </clipPath>
    <clipPath
       clipPathUnits="userSpaceOnUse"
       id="clipPath32">
      <path
         d="M 0,0 H 78 V 78 H 0 Z"
         transform="matrix(3.3196287,0,0,3.3196287,-2.5363542,-0.82991149)"
         id="path32" />
    </clipPath>
    <clipPath
       clipPathUnits="userSpaceOnUse"
       id="clipPath33">
      <path
         d="m 430.32257,781.25 c -21.29529,0 -38.55853,17.26324 -38.55853,38.55853 0,21.29529 17.26324,38.55854 38.55853,38.55854 21.29529,0 38.55853,-17.26325 38.55853,-38.55854 0,-21.29529 -17.26324,-38.55853 -38.55853,-38.55853 z"
         transform="matrix(0.31999999,0,0,0.31999999,520,0)"
         id="path33" />
    </clipPath>
    <clipPath
       clipPathUnits="userSpaceOnUse"
       id="clipPath34">
      <path
         d="m 430.32257,781.25 c -21.29529,0 -38.55853,17.26324 -38.55853,38.55853 0,21.29529 17.26324,38.55854 38.55853,38.55854 21.29529,0 38.55853,-17.26325 38.55853,-38.55854 0,-21.29529 -17.26324,-38.55853 -38.55853,-38.55853 z"
         transform="matrix(0.31999999,0,0,0.31999999,520,0)"
         id="path34" />
    </clipPath>
    <clipPath
       clipPathUnits="userSpaceOnUse"
       id="clipPath38">
      <path
         d="M 0,0 H 1562.5 V 1562.5 H 0 Z"
         transform="matrix(0.31999999,0,0,0.31999999,520,0)"
         id="path38" />
    </clipPath>
  </defs>
  <g
     id="g21"
     transform="translate(-605.99126,-211.82753)">
    <g
       id="g30"
       clip-path="url(#clipPath30)">
      <g
         clip-path="url(#clipPath26)"
         id="g29">
        <g
           clip-path="url(#clipPath25)"
           id="g28">
          <g
             id="g27">
            <path
               d="M 0,0 H 256 V 748 H 0 Z"
               style="fill:#ffffff;fill-opacity:1;fill-rule:nonzero;stroke:none"
               transform="matrix(0.08063386,0.04746398,-0.04746398,0.08063386,637.05886,207.40753)"
               clip-path="url(#clipPath24)"
               id="path27" />
          </g>
        </g>
      </g>
    </g>
    <g
       id="g38"
       clip-path="url(#clipPath38)">
      <g
         clip-path="url(#clipPath34)"
         id="g37">
        <g
           clip-path="url(#clipPath33)"
           id="g36">
          <g
             id="g35">
            <path
               d="M 0,0 H 256 V 256 H 0 Z"
               style="fill:#ffffff;fill-opacity:1;fill-rule:nonzero;stroke:none"
               transform="matrix(0.09639632,0,0,0.09639632,645.36449,249.99999)"
               clip-path="url(#clipPath32)"
               id="path35" />
          </g>
        </g>
      </g>
    </g>
    <g
       id="g39">
      <g
         id="g40">
        <path
           id="path40"
           d="m 21.888974,1.2031362 c -2.523438,0 -4.882813,-0.33984373 -7.078125,-1.015625 C 12.61163,-0.48827008 10.685848,-1.5624889 9.0295983,-3.0312389 7.3811608,-4.5078015 6.0920982,-6.4374891 5.1545982,-8.8124892 4.2249106,-11.195302 3.7639731,-14.093739 3.7639731,-17.49999 V -37.53124 H 14.857724 v 19.671875 c 0,2.773438 0.554687,4.929688 1.671875,6.468751 1.125,1.5312498 2.910156,2.2968748 5.359375,2.2968748 2.507812,0 4.3125,-0.78125 5.40625,-2.3437498 1.101563,-1.570313 1.65625,-3.710938 1.65625,-6.421876 V -37.53124 H 39.99835 v 20.03125 c 0,3.406251 -0.46875,6.304688 -1.40625,8.6875008 -0.929688,2.3750001 -2.218751,4.3046877 -3.875001,5.7812503 -1.648437,1.46875 -3.570312,2.54296882 -5.765625,3.2187501 -2.199219,0.67578127 -4.554688,1.015625 -7.0625,1.015625 z m 47.601564,-0.078125 c -2.917969,0 -5.695312,-0.43359373 -8.328125,-1.29687502 -2.636719,-0.87500008 -5.054688,-2.09765638 -7.25,-3.67187518 -2.199219,-1.5703125 -4.101563,-3.4375001 -5.703126,-5.5937502 -1.605468,-2.1640628 -2.851562,-4.5390628 -3.734375,-7.1250008 -0.875,-2.582031 -1.3125,-5.296875 -1.3125,-8.140625 0,-2.875 0.4375,-5.601563 1.3125,-8.1875 0.882813,-2.59375 2.128907,-4.957032 3.734375,-7.09375 1.601563,-2.132813 3.503907,-3.992188 5.703126,-5.578126 2.195312,-1.582031 4.613281,-2.800781 7.25,-3.65625 2.632813,-0.851562 5.410156,-1.28125 8.328125,-1.28125 2.082032,0 4.187501,0.257813 6.312501,0.765625 2.125,0.5 4.171875,1.277344 6.140625,2.328125 1.96875,1.054688 3.78125,2.398438 5.4375,4.03125 1.65625,1.625 3.050781,3.558594 4.1875,5.796876 1.132813,2.230468 1.90625,4.78125 2.3125,7.65625 H 82.178039 c -0.585938,-2.414063 -1.511719,-4.359375 -2.78125,-5.828125 -1.261719,-1.476563 -2.765625,-2.554688 -4.515625,-3.234375 -1.750001,-0.675782 -3.652344,-1.015625 -5.703126,-1.015625 -1.992187,0 -3.867187,0.351562 -5.625,1.046875 -1.761719,0.699218 -3.308594,1.714843 -4.640625,3.046875 -1.324219,1.335937 -2.367188,2.945312 -3.125,4.828125 -0.761719,1.875 -1.140625,4.011719 -1.140625,6.40625 0,2.4375 0.378906,4.605469 1.140625,6.5 0.757812,1.898438 1.800781,3.500001 3.125,4.812501 1.332031,1.304687 2.878906,2.292968 4.640625,2.96875 1.757813,0.6679685 3.632813,0.9999998 5.625,0.9999998 2.019532,0 3.90625,-0.3320313 5.656251,-0.9999998 1.757812,-0.675782 3.273437,-1.75 4.546875,-3.21875 1.28125,-1.476563 2.203125,-3.414063 2.765625,-5.812501 h 11.734375 c -0.40625,2.875 -1.179687,5.429688 -2.3125,7.656251 -1.136719,2.2187498 -2.523437,4.1484374 -4.15625,5.7812499 -1.625,1.6250001 -3.433594,2.9648439 -5.421875,4.0156252 -1.980469,1.0429688 -4.03125,1.82031258 -6.15625,2.3281251 -2.125,0.50781252 -4.242188,0.765625 -6.343751,0.765625 z m 45.839842,0.078125 c -2.91796,0 -5.60156,-0.52343748 -8.04687,-1.56250003 -2.4375,-1.03906257 -4.54688,-2.47265637 -6.32813,-4.29687517 -1.773434,-1.8203126 -3.140622,-3.9414064 -4.109372,-6.359375 -0.960937,-2.414063 -1.4375,-5 -1.4375,-7.750001 0,-2.726562 0.476563,-5.300781 1.4375,-7.71875 0.96875,-2.414063 2.335938,-4.539063 4.109372,-6.375 1.78125,-1.832032 3.89063,-3.269532 6.32813,-4.3125 2.44531,-1.039063 5.14062,-1.5625 8.07812,-1.5625 2.97657,0 5.69532,0.523437 8.15625,1.5625 2.46875,1.042968 4.58594,2.480468 6.35938,4.3125 1.78125,1.835937 3.15625,3.953125 4.125,6.359375 0.97656,2.398438 1.46875,4.976563 1.46875,7.734375 0,2.750001 -0.49219,5.335938 -1.46875,7.750001 -0.96875,2.4179686 -2.35156,4.5429687 -4.14063,6.375 -1.79296,1.8359376 -3.92187,3.2656251 -6.39062,4.29687517 -2.46094,1.03125005 -5.17188,1.54687503 -8.14063,1.54687503 z m 0.10938,-10.2968754 c 1.75781,0 3.3125,-0.4101563 4.65625,-1.2343748 1.34375,-0.820313 2.39844,-1.957032 3.17187,-3.40625 0.76954,-1.445313 1.15625,-3.125001 1.15625,-5.031251 0,-1.90625 -0.38671,-3.582031 -1.15625,-5.03125 -0.77343,-1.457031 -1.82812,-2.59375 -3.17187,-3.40625 -1.34375,-0.820312 -2.89844,-1.234375 -4.65625,-1.234375 -1.74219,0 -3.28906,0.414063 -4.64063,1.234375 -1.35546,0.8125 -2.41797,1.949219 -3.1875,3.40625 -0.77343,1.449219 -1.15625,3.125 -1.15625,5.03125 0,1.90625 0.38282,3.585938 1.15625,5.031251 0.76953,1.449218 1.83204,2.585937 3.1875,3.40625 1.35157,0.8242185 2.89844,1.2343748 4.64063,1.2343748 z m 70.14453,-29.6406258 c 3.16407,0 5.78125,0.746093 7.84375,2.234375 2.07032,1.480468 3.60938,3.609375 4.60938,6.390625 1,2.78125 1.5,6.105469 1.5,9.96875 V 1.11875e-5 H 188.52179 V -19.890615 c 0,-3.09375 -0.57812,-5.300781 -1.73437,-6.625 -1.15625,-1.332031 -2.66797,-2 -4.53125,-2 -1.28125,0 -2.48047,0.414063 -3.59375,1.234375 -1.10547,0.824219 -1.9961,1.980469 -2.67188,3.46875 -0.67968,1.480469 -1.01562,3.210938 -1.01562,5.1875 V 1.11875e-5 H 163.95929 V -19.890615 c 0,-2.070312 -0.26562,-3.742187 -0.79687,-5.015625 -0.53125,-1.269531 -1.26172,-2.1875 -2.1875,-2.75 -0.92969,-0.570312 -2.02344,-0.859375 -3.28125,-0.859375 -1.26172,0 -2.44922,0.414063 -3.5625,1.234375 -1.10547,0.824219 -2,1.980469 -2.6875,3.46875 -0.6875,1.480469 -1.03125,3.210938 -1.03125,5.1875 V 1.11875e-5 H 139.39679 V -37.53124 h 10.4375 l 0.14063,4.53125 c 0.65625,-1.113281 1.52343,-2.097657 2.60937,-2.953125 1.08203,-0.863282 2.34375,-1.539063 3.78125,-2.03125 1.4375,-0.5 2.98828,-0.75 4.65625,-0.75 2.94531,0 5.41406,0.648437 7.40625,1.9375 2,1.292968 3.53125,3.15625 4.59375,5.59375 1.70703,-2.65625 3.60938,-4.570313 5.70313,-5.75 2.09375,-1.1875 4.3789,-1.78125 6.85937,-1.78125 z m 25.48047,-3.218751 c -1.375,0 -2.55468,-0.269531 -3.53125,-0.8125 -0.98047,-0.550781 -1.73047,-1.273437 -2.25,-2.171875 -0.52343,-0.90625 -0.78125,-1.914062 -0.78125,-3.03125 0,-1.113281 0.25,-2.125 0.75,-3.03125 0.50782,-0.90625 1.25782,-1.632813 2.25,-2.1875 1,-0.550781 2.19532,-0.828125 3.59375,-0.828125 1.44532,0 2.66407,0.277344 3.65625,0.828125 0.98828,0.554687 1.73828,1.28125 2.25,2.1875 0.50782,0.90625 0.76563,1.917969 0.76563,3.03125 0,1.6875 -0.57813,3.117188 -1.73438,4.28125 -1.14843,1.15625 -2.80468,1.734375 -4.96875,1.734375 z M 216.67414,1.11875e-5 H 205.51789 V -37.53124 h 11.15625 z M 237.26398,1.2343862 c -2.875,0 -5.35937,-0.39062498 -7.45312,-1.17187501 -2.08594,-0.76953128 -3.79688,-1.80078129 -5.14063,-3.09375009 -1.33594,-1.2890626 -2.32812,-2.7382814 -2.98437,-4.3437502 -0.65625,-1.6015626 -0.98438,-3.2499999 -0.98438,-4.9374999 l 10.70313,0.0625 c 0.0937,1.375 0.60937,2.5078123 1.54687,3.3906248 0.94532,0.8867188 2.41016,1.3281251 4.39063,1.3281251 1.78125,0 3.03906,-0.3164063 3.78125,-0.9531251 0.73828,-0.6445312 1.10937,-1.4609375 1.10937,-2.4531248 0,-1.113282 -0.53125,-1.910157 -1.59375,-2.390625 -1.0625,-0.488282 -2.69531,-0.878907 -4.89062,-1.171875 -1.86719,-0.207032 -3.625,-0.585938 -5.28125,-1.140625 -1.64844,-0.5625 -3.10547,-1.316407 -4.375,-2.265626 -1.27344,-0.957031 -2.26563,-2.148437 -2.98438,-3.578125 -0.71094,-1.425781 -1.0625,-3.128906 -1.0625,-5.109375 0,-2.539063 0.58203,-4.710938 1.75,-6.515625 1.17578,-1.8125 2.86719,-3.203125 5.07813,-4.171875 2.21875,-0.96875 4.88281,-1.453125 8,-1.453125 3.11328,0 5.85156,0.53125 8.21875,1.59375 2.36328,1.0625 4.20703,2.554687 5.53125,4.46875 1.33203,1.90625 2,4.136719 2,6.6875 l -10.90625,-0.0625 c -0.0742,-1.0625 -0.4961,-1.9375 -1.26563,-2.625 -0.77343,-0.6875 -1.95312,-1.03125 -3.54687,-1.03125 -1.40625,0 -2.41406,0.289062 -3.01563,0.859375 -0.59375,0.5625 -0.89062,1.230469 -0.89062,2 0,0.53125 0.0781,0.976563 0.23437,1.328125 0.15625,0.34375 0.46094,0.636719 0.92188,0.875 0.45703,0.242188 1.1289,0.464844 2.01562,0.671875 0.89453,0.210938 2.09375,0.421875 3.59375,0.640625 2.85157,0.40625 5.31641,1.03125 7.39063,1.875 2.08203,0.84375 3.67969,2.046875 4.79687,3.609375 1.125,1.562501 1.6875,3.648438 1.6875,6.250001 0,2.1992185 -0.42187,4.1015624 -1.26562,5.7031249 -0.84375,1.6054689 -2.01172,2.9335939 -3.5,3.9843752 -1.48047,1.05468755 -3.21485,1.83984383 -5.20313,2.35937511 -1.98047,0.51953127 -4.11718,0.78124999 -6.40625,0.78124999 z m 0,0"
           style="fill:#ffffff;fill-opacity:1;fill-rule:nonzero;stroke:none"
           aria-label="uComis"
           transform="translate(678.4665,268.49999)" />
      </g>
    </g>
  </g>
</svg>
